<?xml version="1.0" standalone="no"?>
<!DOCTYPE svg PUBLIC "-//W3C//DTD SVG 20010904//EN"
 "http://www.w3.org/TR/2001/REC-SVG-20010904/DTD/svg10.dtd">
<svg version="1.0" xmlns="http://www.w3.org/2000/svg"
 width="232.000000pt" height="193.000000pt" viewBox="0 0 232.000000 193.000000"
 preserveAspectRatio="xMidYMid meet">
<metadata>
Created by potrace 1.10, written by Peter Selinger 2001-2011
</metadata>
<g transform="translate(0.000000,193.000000) scale(0.100000,-0.100000)"
fill="#000000" stroke="none">
<path d="M555 1791 c-7 -12 -55 -340 -55 -377 0 -16 13 -39 36 -62 l35 -35 2
-159 2 -158 -37 0 -38 0 0 -95 c0 -84 2 -95 18 -95 16 0 17 -13 14 -155 l-3
-155 621 0 620 0 0 154 c0 135 2 155 16 158 14 2 17 18 17 93 l0 90 -37 3 -36
3 0 162 0 162 30 17 c44 25 49 63 27 208 -10 69 -24 152 -31 185 l-12 60 -591
3 c-364 1 -594 -1 -598 -7z m125 -202 c0 -99 -4 -189 -10 -199 -14 -25 -65
-41 -95 -30 -47 18 -50 46 -26 197 12 76 24 155 27 176 6 37 6 37 55 37 l49 0
0 -181z m180 -4 c-1 -193 -7 -220 -52 -227 -36 -6 -74 11 -87 38 -7 16 -11 90
-11 200 l0 175 76 -3 76 -3 -2 -180z m182 -2 c-3 -169 -5 -190 -22 -207 -28
-29 -78 -25 -107 8 -22 26 -23 33 -23 207 l0 179 78 0 77 0 -3 -187z m188 8
c0 -174 -1 -181 -23 -207 -28 -32 -78 -36 -108 -8 -17 16 -19 33 -19 206 l0
188 75 0 75 0 0 -179z m180 -4 c0 -171 -1 -185 -20 -205 -31 -33 -85 -33 -112
0 -16 18 -18 43 -18 204 l0 184 75 0 75 0 0 -183z m180 -1 c0 -161 -2 -186
-17 -204 -28 -33 -82 -33 -113 0 -19 20 -20 34 -20 205 l0 183 75 0 75 0 0
-184z m130 177 c0 -5 11 -75 25 -158 14 -82 26 -163 27 -178 2 -60 -80 -94
-123 -51 -17 18 -19 36 -22 207 l-2 187 48 0 c26 0 47 -3 47 -7z m-929 -443
c15 0 41 11 58 25 l30 26 20 -20 c39 -39 103 -39 142 0 l20 20 30 -26 c38 -31
76 -32 121 -1 l34 23 28 -23 c36 -32 86 -32 123 0 l28 25 22 -21 c11 -11 39
-22 60 -25 32 -4 45 0 71 21 l31 27 20 -20 c11 -11 32 -23 46 -27 l25 -6 0
-159 0 -159 -547 0 -548 0 0 160 c0 144 2 160 17 160 9 0 29 11 44 24 l28 23
34 -23 c19 -13 47 -24 63 -24z m983 -415 l0 -55 -622 -3 -622 -2 0 60 0 60
622 -2 622 -3 0 -55z m-34 -240 l0 -145 -585 0 -585 0 0 145 0 145 585 0 585
0 0 -145z"/>
<path d="M1468 443 c7 -3 16 -2 19 1 4 3 -2 6 -13 5 -11 0 -14 -3 -6 -6z"/>
<path d="M355 403 c-33 -8 -65 -44 -65 -75 0 -33 30 -56 92 -70 73 -16 98 -53
56 -82 -29 -20 -71 -20 -114 0 -19 9 -37 14 -40 11 -23 -23 82 -58 135 -46 41
9 61 32 61 70 0 34 -15 46 -92 73 -54 18 -63 25 -66 48 -5 45 45 59 126 33 26
-9 30 10 5 23 -25 13 -74 21 -98 15z"/>
<path d="M1413 402 l-83 -3 0 -129 0 -130 90 0 c53 0 90 4 90 10 0 6 -32 10
-75 10 l-75 0 0 50 0 50 65 0 c53 0 65 3 65 16 0 14 -10 16 -65 12 l-65 -4 0
48 0 48 75 0 c41 0 75 4 75 9 0 15 -9 16 -97 13z"/>
<path d="M530 365 c0 -24 -5 -35 -15 -35 -8 0 -15 -4 -15 -10 0 -5 7 -10 15
-10 12 0 15 -16 15 -80 0 -86 12 -105 58 -93 32 8 28 32 -5 30 -26 -2 -26 -2
-27 71 -1 68 0 72 21 72 13 0 23 5 23 10 0 6 -11 10 -25 10 -24 0 -25 2 -19
35 5 28 3 35 -10 35 -12 0 -16 -9 -16 -35z"/>
<path d="M1210 365 c0 -24 -5 -35 -15 -35 -8 0 -15 -4 -15 -10 0 -5 7 -10 15
-10 12 0 15 -15 15 -73 0 -59 4 -77 19 -91 14 -13 24 -14 45 -6 33 12 27 29
-8 23 -24 -5 -24 -4 -28 71 -3 73 -2 76 20 76 12 0 22 6 22 13 0 8 -10 13 -22
13 -20 -1 -23 3 -20 32 3 24 0 32 -12 32 -12 0 -16 -10 -16 -35z"/>
<path d="M1760 365 c0 -24 -5 -35 -15 -35 -8 0 -15 -4 -15 -10 0 -5 7 -10 15
-10 12 0 15 -15 15 -73 0 -59 4 -77 19 -91 14 -13 24 -14 45 -6 33 12 27 29
-8 23 -24 -5 -24 -4 -28 71 -3 73 -2 76 20 76 12 0 22 5 22 10 0 6 -9 10 -20
10 -16 0 -20 7 -20 35 0 24 -5 35 -15 35 -10 0 -15 -11 -15 -35z"/>
<path d="M720 332 c-8 -2 -23 -11 -32 -20 -16 -14 -18 -13 -18 1 0 10 -7 17
-15 17 -12 0 -15 -17 -15 -95 0 -78 3 -95 15 -95 12 0 15 14 15 64 0 67 5 75
66 112 20 12 8 24 -16 16z"/>
<path d="M820 333 c-56 -22 -83 -89 -56 -142 17 -32 61 -61 93 -61 23 0 81 46
71 56 -5 4 -16 0 -25 -8 -32 -29 -74 -27 -103 4 -36 39 -27 46 61 47 45 0 84
3 87 5 7 8 -18 63 -37 80 -20 18 -68 28 -91 19z m82 -40 c36 -32 23 -43 -52
-43 -38 0 -70 3 -70 8 0 4 7 18 16 30 19 27 78 30 106 5z"/>
<path d="M1035 331 c-39 -17 -60 -51 -60 -98 0 -37 5 -49 28 -69 40 -34 71
-39 109 -17 32 19 48 43 28 43 -6 0 -18 -7 -26 -15 -22 -22 -70 -19 -94 7 -35
38 -26 45 62 46 44 1 83 4 86 7 7 7 -18 62 -37 79 -22 20 -70 28 -96 17z m89
-43 c9 -12 16 -26 16 -30 0 -5 -31 -8 -70 -8 -74 0 -84 8 -53 42 24 27 87 24
107 -4z"/>
<path d="M1578 329 c-16 -6 -28 -17 -28 -25 0 -17 0 -17 36 1 37 18 68 10 83
-21 16 -35 15 -37 -21 -32 -47 7 -98 -9 -107 -35 -25 -67 63 -112 120 -61 15
13 17 12 22 -8 4 -14 10 -19 15 -13 14 16 -1 162 -18 179 -20 21 -69 28 -102
15z m99 -116 c9 -24 -33 -55 -70 -51 -38 4 -56 30 -38 52 19 22 99 22 108 -1z"/>
<path d="M1903 330 c-27 -11 -40 -54 -23 -75 6 -7 34 -21 61 -30 42 -14 50
-21 47 -38 -2 -17 -11 -23 -40 -25 -20 -2 -46 2 -57 7 -13 8 -22 8 -26 1 -7
-11 53 -40 83 -40 27 0 72 38 72 60 0 24 -23 42 -78 60 -48 16 -57 26 -43 48
10 16 44 19 84 8 38 -11 35 9 -4 23 -37 13 -46 13 -76 1z"/>
<path d="M388 93 c6 -2 18 -2 25 0 6 3 1 5 -13 5 -14 0 -19 -2 -12 -5z"/>
<path d="M1248 93 c7 -3 16 -2 19 1 4 3 -2 6 -13 5 -11 0 -14 -3 -6 -6z"/>
<path d="M1408 93 c18 -2 45 -2 60 0 15 2 0 4 -33 4 -33 0 -45 -2 -27 -4z"/>
<path d="M1618 93 c7 -3 16 -2 19 1 4 3 -2 6 -13 5 -11 0 -14 -3 -6 -6z"/>
<path d="M1798 93 c7 -3 16 -2 19 1 4 3 -2 6 -13 5 -11 0 -14 -3 -6 -6z"/>
</g>
</svg>
